<?xml version="1.0" encoding="UTF-8" standalone="no"?>
<!DOCTYPE svg PUBLIC "-//W3C//DTD SVG 1.1//EN" "http://www.w3.org/Graphics/SVG/1.1/DTD/svg11.dtd">
<!-- Generated by graphviz version 2.26.3 (20100126.1600)
 -->
<!-- Title: G Pages: 1 -->
<svg xmlns="http://www.w3.org/2000/svg" xmlns:xlink="http://www.w3.org/1999/xlink" width="1882pt" height="2043pt">
<g id="viewport" class="graph" transform="scale(1 1) rotate(0) translate(4 2039.5)">
<title>G</title>
<polygon fill="white" stroke="white" points="-4,5 -4,-2039.5 1879,-2039.5 1879,5 -4,5"/>
<g id="graph2" class="cluster"><title>cluster_default</title>
<polyline fill="none" stroke="none" points="487,-517.5 1854,-517.5 "/>
<path fill="none" stroke="none" d="M1854,-517.5C1860,-517.5 1866,-523.5 1866,-529.5"/>
<polyline fill="none" stroke="none" points="1866,-529.5 1866,-2015.5 "/>
<path fill="none" stroke="none" d="M1866,-2015.5C1866,-2021.5 1860,-2027.5 1854,-2027.5"/>
<polyline fill="none" stroke="none" points="1854,-2027.5 487,-2027.5 "/>
<path fill="none" stroke="none" d="M487,-2027.5C481,-2027.5 475,-2021.5 475,-2015.5"/>
<polyline fill="none" stroke="none" points="475,-2015.5 475,-529.5 "/>
<path fill="none" stroke="none" d="M475,-529.5C475,-523.5 481,-517.5 487,-517.5"/>
</g>
<!-- _ZendX_JQuery -->
<g id="node2" class="node"><title>_ZendX_JQuery</title>
<a xlink:href="db_ZendX_JQuery.html" xlink:title="ZendX_JQuery" target="_parent">
<polygon fill="none" stroke="black" points="1730,-2019.5 1632,-2019.5 1632,-1983.5 1730,-1983.5 1730,-2019.5"/>
<text text-anchor="middle" x="1681" y="-1998.6" font-family="Courier New" font-size="11.00">ZendX_JQuery</text>
</a>
</g>
<!-- _ZendX_Exception -->
<g id="node3" class="node"><title>_ZendX_Exception</title>
<a xlink:href="db_ZendX_Exception.html" xlink:title="ZendX_Exception" target="_parent">
<polygon fill="none" stroke="black" points="662,-1967.5 544,-1967.5 544,-1931.5 662,-1931.5 662,-1967.5"/>
<text text-anchor="middle" x="603" y="-1946.6" font-family="Courier New" font-size="11.00">ZendX_Exception</text>
</a>
</g>
<!-- _Zend_Exception -->
<g id="node48" class="node"><title>_Zend_Exception</title>
<ellipse fill="none" stroke="black" cx="179" cy="-1974.5" rx="96.1665" ry="18.3848"/>
<text text-anchor="middle" x="179" y="-1970.9" font-family="Times Roman,serif" font-size="14.00" fill="gray">\\Zend_Exception</text>
</g>
<!-- _ZendX_Exception&#45;&gt;_Zend_Exception -->
<g id="edge3" class="edge"><title>_ZendX_Exception-&gt;_Zend_Exception</title>
<path fill="none" stroke="black" d="M543.598,-1953C475.556,-1957.01 362.899,-1963.66 280.791,-1968.5"/>
<polygon fill="none" stroke="black" points="280.459,-1965.01 270.682,-1969.09 280.871,-1972 280.459,-1965.01"/>
</g>
<!-- _ZendX_JQuery_Form -->
<g id="node4" class="node"><title>_ZendX_JQuery_Form</title>
<a xlink:href="db_ZendX_JQuery_Form.html" xlink:title="ZendX_JQuery_Form" target="_parent">
<polygon fill="none" stroke="black" points="1746,-1047.5 1616,-1047.5 1616,-1011.5 1746,-1011.5 1746,-1047.5"/>
<text text-anchor="middle" x="1681" y="-1026.6" font-family="Courier New" font-size="11.00">ZendX_JQuery_Form</text>
</a>
</g>
<!-- _Zend_Form -->
<g id="node50" class="node"><title>_Zend_Form</title>
<ellipse fill="none" stroke="black" cx="1140" cy="-437.5" rx="72.832" ry="18.3848"/>
<text text-anchor="middle" x="1140" y="-433.9" font-family="Times Roman,serif" font-size="14.00" fill="gray">\\Zend_Form</text>
</g>
<!-- _ZendX_JQuery_Form&#45;&gt;_Zend_Form -->
<g id="edge5" class="edge"><title>_ZendX_JQuery_Form-&gt;_Zend_Form</title>
<path fill="none" stroke="black" d="M1615.15,-1037.27C1577.51,-1037.85 1532.31,-1031.33 1504,-1002.5 1334.99,-830.358 1606.03,-631.566 1432,-464.5 1371.65,-406.567 1268.48,-411.88 1202.31,-423.116"/>
<polygon fill="none" stroke="black" points="1201.65,-419.678 1192.43,-424.886 1202.89,-426.569 1201.65,-419.678"/>
</g>
<!-- _ZendX_JQuery_Exception -->
<g id="node5" class="node"><title>_ZendX_JQuery_Exception</title>
<a xlink:href="db_ZendX_JQuery_Exception.html" xlink:title="ZendX_JQuery_Exception" target="_parent">
<polygon fill="none" stroke="black" points="1222,-2019.5 1058,-2019.5 1058,-1983.5 1222,-1983.5 1222,-2019.5"/>
<text text-anchor="middle" x="1140" y="-1998.6" font-family="Courier New" font-size="11.00">ZendX_JQuery_Exception</text>
</a>
</g>
<!-- _ZendX_JQuery_Exception&#45;&gt;_Zend_Exception -->
<g id="edge7" class="edge"><title>_ZendX_JQuery_Exception-&gt;_Zend_Exception</title>
<path fill="none" stroke="black" d="M1057.23,-1999.17C882.684,-1994.27 477.104,-1982.88 284.362,-1977.46"/>
<polygon fill="none" stroke="black" points="284.317,-1973.96 274.223,-1977.18 284.121,-1980.95 284.317,-1973.96"/>
</g>
<!-- _ZendX_JQuery_View_Helper_TabPane -->
<g id="node6" class="node"><title>_ZendX_JQuery_View_Helper_TabPane</title>
<a xlink:href="db_ZendX_JQuery_View_Helper_TabPane.html" xlink:title="ZendX_JQuery_View_Helper_TabPane" target="_parent">
<polygon fill="none" stroke="black" points="1797,-1695.5 1565,-1695.5 1565,-1659.5 1797,-1659.5 1797,-1695.5"/>
<text text-anchor="middle" x="1681" y="-1674.6" font-family="Courier New" font-size="11.00">ZendX_JQuery_View_Helper_TabPane</text>
</a>
</g>
<!-- _ZendX_JQuery_View_Helper_UiWidgetPane -->
<g id="node12" class="node"><title>_ZendX_JQuery_View_Helper_UiWidgetPane</title>
<a xlink:href="db_ZendX_JQuery_View_Helper_UiWidgetPane.html" xlink:title="«abstract»&lt;br/&gt;ZendX_JQuery_View_Helper_UiWidgetPane" target="_parent">
<polygon fill="none" stroke="black" points="1273,-1695.5 1007,-1695.5 1007,-1659.5 1273,-1659.5 1273,-1695.5"/>
<text text-anchor="start" x="1106" y="-1682.93" font-family="Courier New" font-size="11.00">«abstract»</text>
<text text-anchor="start" x="1015" y="-1669.73" font-family="Courier New" font-size="11.00">ZendX_JQuery_View_Helper_UiWidgetPane</text>
</a>
</g>
<!-- _ZendX_JQuery_View_Helper_TabPane&#45;&gt;_ZendX_JQuery_View_Helper_UiWidgetPane -->
<g id="edge9" class="edge"><title>_ZendX_JQuery_View_Helper_TabPane-&gt;_ZendX_JQuery_View_Helper_UiWidgetPane</title>
<path fill="none" stroke="black" d="M1564.28,-1677.5C1482.03,-1677.5 1371.37,-1677.5 1283.69,-1677.5"/>
<polygon fill="none" stroke="black" points="1283.66,-1674 1273.66,-1677.5 1283.66,-1681 1283.66,-1674"/>
</g>
<!-- _ZendX_JQuery_View_Helper_TabContainer -->
<g id="node7" class="node"><title>_ZendX_JQuery_View_Helper_TabContainer</title>
<a xlink:href="db_ZendX_JQuery_View_Helper_TabContainer.html" xlink:title="ZendX_JQuery_View_Helper_TabContainer" target="_parent">
<polygon fill="none" stroke="black" points="1273,-1533.5 1007,-1533.5 1007,-1497.5 1273,-1497.5 1273,-1533.5"/>
<text text-anchor="middle" x="1140" y="-1512.6" font-family="Courier New" font-size="11.00">ZendX_JQuery_View_Helper_TabContainer</text>
</a>
</g>
<!-- _ZendX_JQuery_View_Helper_UiWidget -->
<g id="node16" class="node"><title>_ZendX_JQuery_View_Helper_UiWidget</title>
<a xlink:href="db_ZendX_JQuery_View_Helper_UiWidget.html" xlink:title="«abstract»&lt;br/&gt;ZendX_JQuery_View_Helper_UiWidget" target="_parent">
<polygon fill="none" stroke="black" points="723,-1668.5 483,-1668.5 483,-1632.5 723,-1632.5 723,-1668.5"/>
<text text-anchor="start" x="569" y="-1655.93" font-family="Courier New" font-size="11.00">«abstract»</text>
<text text-anchor="start" x="491.5" y="-1642.73" font-family="Courier New" font-size="11.00">ZendX_JQuery_View_Helper_UiWidget</text>
</a>
</g>
<!-- _ZendX_JQuery_View_Helper_TabContainer&#45;&gt;_ZendX_JQuery_View_Helper_UiWidget -->
<g id="edge11" class="edge"><title>_ZendX_JQuery_View_Helper_TabContainer-&gt;_ZendX_JQuery_View_Helper_UiWidget</title>
<path fill="none" stroke="black" d="M1006.69,-1506.61C954.619,-1508.42 896.018,-1517.32 848,-1542.5 803.853,-1565.65 819.744,-1604.59 776,-1628.5 762.705,-1635.76 747.998,-1641.03 732.939,-1644.8"/>
<polygon fill="none" stroke="black" points="731.974,-1641.43 723.003,-1647.07 733.531,-1648.26 731.974,-1641.43"/>
</g>
<!-- _ZendX_JQuery_View_Helper_AccordionContainer -->
<g id="node8" class="node"><title>_ZendX_JQuery_View_Helper_AccordionContainer</title>
<a xlink:href="db_ZendX_JQuery_View_Helper_AccordionContainer.html" xlink:title="ZendX_JQuery_View_Helper_AccordionContainer" target="_parent">
<polygon fill="none" stroke="black" points="1293,-1479.5 987,-1479.5 987,-1443.5 1293,-1443.5 1293,-1479.5"/>
<text text-anchor="middle" x="1140" y="-1458.6" font-family="Courier New" font-size="11.00">ZendX_JQuery_View_Helper_AccordionContainer</text>
</a>
</g>
<!-- _ZendX_JQuery_View_Helper_AccordionContainer&#45;&gt;_ZendX_JQuery_View_Helper_UiWidget -->
<g id="edge13" class="edge"><title>_ZendX_JQuery_View_Helper_AccordionContainer-&gt;_ZendX_JQuery_View_Helper_UiWidget</title>
<path fill="none" stroke="black" d="M986.349,-1447.99C938.626,-1450.73 888.081,-1461.43 848,-1488.5 790.016,-1527.66 833.304,-1588.35 776,-1628.5 763.185,-1637.48 748.494,-1643.73 733.207,-1647.98"/>
<polygon fill="none" stroke="black" points="731.947,-1644.69 723.088,-1650.5 733.637,-1651.48 731.947,-1644.69"/>
</g>
<!-- _ZendX_JQuery_View_Helper_JQuery -->
<g id="node9" class="node"><title>_ZendX_JQuery_View_Helper_JQuery</title>
<a xlink:href="db_ZendX_JQuery_View_Helper_JQuery.html" xlink:title="ZendX_JQuery_View_Helper_JQuery" target="_parent">
<polygon fill="none" stroke="black" points="1794,-993.5 1568,-993.5 1568,-957.5 1794,-957.5 1794,-993.5"/>
<text text-anchor="middle" x="1681" y="-972.6" font-family="Courier New" font-size="11.00">ZendX_JQuery_View_Helper_JQuery</text>
</a>
</g>
<!-- _Zend_View_Helper_Abstract -->
<g id="node56" class="node"><title>_Zend_View_Helper_Abstract</title>
<ellipse fill="none" stroke="black" cx="1140" cy="-383.5" rx="155.771" ry="18.3848"/>
<text text-anchor="middle" x="1140" y="-379.9" font-family="Times Roman,serif" font-size="14.00" fill="gray">\\Zend_View_Helper_Abstract</text>
</g>
<!-- _ZendX_JQuery_View_Helper_JQuery&#45;&gt;_Zend_View_Helper_Abstract -->
<g id="edge15" class="edge"><title>_ZendX_JQuery_View_Helper_JQuery-&gt;_Zend_View_Helper_Abstract</title>
<path fill="none" stroke="black" d="M1567.92,-979.585C1544.05,-975.065 1520.99,-965.801 1504,-948.5 1334.99,-776.358 1606.03,-577.566 1432,-410.5 1377.42,-358.101 1287.79,-357.442 1222.21,-366.109"/>
<polygon fill="none" stroke="black" points="1221.72,-362.643 1212.31,-367.511 1222.71,-369.574 1221.72,-362.643"/>
</g>
<!-- _ZendX_JQuery_View_Helper_Spinner -->
<g id="node10" class="node"><title>_ZendX_JQuery_View_Helper_Spinner</title>
<a xlink:href="db_ZendX_JQuery_View_Helper_Spinner.html" xlink:title="ZendX_JQuery_View_Helper_Spinner" target="_parent">
<polygon fill="none" stroke="black" points="1256,-1911.5 1024,-1911.5 1024,-1875.5 1256,-1875.5 1256,-1911.5"/>
<text text-anchor="middle" x="1140" y="-1890.6" font-family="Courier New" font-size="11.00">ZendX_JQuery_View_Helper_Spinner</text>
</a>
</g>
<!-- _ZendX_JQuery_View_Helper_Spinner&#45;&gt;_ZendX_JQuery_View_Helper_UiWidget -->
<g id="edge17" class="edge"><title>_ZendX_JQuery_View_Helper_Spinner-&gt;_ZendX_JQuery_View_Helper_UiWidget</title>
<path fill="none" stroke="black" d="M1023.24,-1899.13C968.102,-1897.74 902.574,-1890.05 848,-1866.5 748.296,-1823.47 660.662,-1723.95 622.832,-1676.53"/>
<polygon fill="none" stroke="black" points="625.503,-1674.26 616.565,-1668.58 620.005,-1678.6 625.503,-1674.26"/>
</g>
<!-- _ZendX_JQuery_View_Helper_AjaxLink -->
<g id="node11" class="node"><title>_ZendX_JQuery_View_Helper_AjaxLink</title>
<a xlink:href="db_ZendX_JQuery_View_Helper_AjaxLink.html" xlink:title="ZendX_JQuery_View_Helper_AjaxLink" target="_parent">
<polygon fill="none" stroke="black" points="1800,-939.5 1562,-939.5 1562,-903.5 1800,-903.5 1800,-939.5"/>
<text text-anchor="middle" x="1681" y="-918.6" font-family="Courier New" font-size="11.00">ZendX_JQuery_View_Helper_AjaxLink</text>
</a>
</g>
<!-- _Zend_View_Helper_HtmlElement -->
<g id="node59" class="node"><title>_Zend_View_Helper_HtmlElement</title>
<ellipse fill="none" stroke="black" cx="179" cy="-980.5" rx="178.898" ry="18.3848"/>
<text text-anchor="middle" x="179" y="-976.9" font-family="Times Roman,serif" font-size="14.00" fill="gray">\\Zend_View_Helper_HtmlElement</text>
</g>
<!-- _ZendX_JQuery_View_Helper_AjaxLink&#45;&gt;_Zend_View_Helper_HtmlElement -->
<g id="edge19" class="edge"><title>_ZendX_JQuery_View_Helper_AjaxLink-&gt;_Zend_View_Helper_HtmlElement</title>
<path fill="none" stroke="black" d="M1561.06,-924.147C1539.67,-919.209 1519.35,-910.137 1504,-894.5 1334.99,-722.358 1613.55,-515.368 1432,-356.5 1383.17,-313.768 912.755,-352.334 848,-356.5 661.065,-368.525 579.999,-298.297 430,-410.5 243.665,-549.883 193.235,-857.735 181.895,-952.309"/>
<polygon fill="none" stroke="black" points="178.415,-951.937 180.752,-962.271 185.369,-952.735 178.415,-951.937"/>
</g>
<!-- _ZendX_JQuery_View_Helper_UiWidgetPane&#45;&gt;_ZendX_JQuery_View_Helper_UiWidget -->
<g id="edge21" class="edge"><title>_ZendX_JQuery_View_Helper_UiWidgetPane-&gt;_ZendX_JQuery_View_Helper_UiWidget</title>
<path fill="none" stroke="black" d="M1006.22,-1670.77C922.875,-1666.58 816.15,-1661.22 733.438,-1657.06"/>
<polygon fill="none" stroke="black" points="733.38,-1653.55 723.217,-1656.54 733.029,-1660.54 733.38,-1653.55"/>
</g>
<!-- _ZendX_JQuery_View_Helper_AutoComplete -->
<g id="node13" class="node"><title>_ZendX_JQuery_View_Helper_AutoComplete</title>
<a xlink:href="db_ZendX_JQuery_View_Helper_AutoComplete.html" xlink:title="ZendX_JQuery_View_Helper_AutoComplete" target="_parent">
<polygon fill="none" stroke="black" points="1273,-1857.5 1007,-1857.5 1007,-1821.5 1273,-1821.5 1273,-1857.5"/>
<text text-anchor="middle" x="1140" y="-1836.6" font-family="Courier New" font-size="11.00">ZendX_JQuery_View_Helper_AutoComplete</text>
</a>
</g>
<!-- _ZendX_JQuery_View_Helper_AutoComplete&#45;&gt;_ZendX_JQuery_View_Helper_UiWidget -->
<g id="edge23" class="edge"><title>_ZendX_JQuery_View_Helper_AutoComplete-&gt;_ZendX_JQuery_View_Helper_UiWidget</title>
<path fill="none" stroke="black" d="M1006.98,-1840.87C956.058,-1837.89 898.188,-1830.15 848,-1812.5 760.329,-1781.66 673.313,-1712.63 630.454,-1675.41"/>
<polygon fill="none" stroke="black" points="632.554,-1672.59 622.729,-1668.63 627.936,-1677.85 632.554,-1672.59"/>
</g>
<!-- _ZendX_JQuery_View_Helper_DatePicker -->
<g id="node14" class="node"><title>_ZendX_JQuery_View_Helper_DatePicker</title>
<a xlink:href="db_ZendX_JQuery_View_Helper_DatePicker.html" xlink:title="ZendX_JQuery_View_Helper_DatePicker" target="_parent">
<polygon fill="none" stroke="black" points="1266,-1803.5 1014,-1803.5 1014,-1767.5 1266,-1767.5 1266,-1803.5"/>
<text text-anchor="middle" x="1140" y="-1782.6" font-family="Courier New" font-size="11.00">ZendX_JQuery_View_Helper_DatePicker</text>
</a>
</g>
<!-- _ZendX_JQuery_View_Helper_DatePicker&#45;&gt;_ZendX_JQuery_View_Helper_UiWidget -->
<g id="edge25" class="edge"><title>_ZendX_JQuery_View_Helper_DatePicker-&gt;_ZendX_JQuery_View_Helper_UiWidget</title>
<path fill="none" stroke="black" d="M1013.43,-1782.7C961.51,-1779.26 901.224,-1772.3 848,-1758.5 772.913,-1739.03 691.613,-1699.05 644.106,-1673.58"/>
<polygon fill="none" stroke="black" points="645.528,-1670.37 635.067,-1668.68 642.196,-1676.52 645.528,-1670.37"/>
</g>
<!-- _ZendX_JQuery_View_Helper_JQuery_Container -->
<g id="node15" class="node"><title>_ZendX_JQuery_View_Helper_JQuery_Container</title>
<a xlink:href="db_ZendX_JQuery_View_Helper_JQuery_Container.html" xlink:title="ZendX_JQuery_View_Helper_JQuery_Container" target="_parent">
<polygon fill="none" stroke="black" points="1827,-1749.5 1535,-1749.5 1535,-1713.5 1827,-1713.5 1827,-1749.5"/>
<text text-anchor="middle" x="1681" y="-1728.6" font-family="Courier New" font-size="11.00">ZendX_JQuery_View_Helper_JQuery_Container</text>
</a>
</g>
<!-- _ZendX_JQuery_View_Helper_UiWidget&#45;&gt;_Zend_View_Helper_HtmlElement -->
<g id="edge27" class="edge"><title>_ZendX_JQuery_View_Helper_UiWidget-&gt;_Zend_View_Helper_HtmlElement</title>
<path fill="none" stroke="black" d="M482.785,-1652.09C463.705,-1647.78 445.262,-1640.44 430,-1628.5 223.259,-1466.76 186.632,-1111.88 180.294,-1008.99"/>
<polygon fill="none" stroke="black" points="183.775,-1008.55 179.715,-998.764 176.786,-1008.95 183.775,-1008.55"/>
</g>
<!-- _ZendX_JQuery_View_Helper_DialogContainer -->
<g id="node17" class="node"><title>_ZendX_JQuery_View_Helper_DialogContainer</title>
<a xlink:href="db_ZendX_JQuery_View_Helper_DialogContainer.html" xlink:title="ZendX_JQuery_View_Helper_DialogContainer" target="_parent">
<polygon fill="none" stroke="black" points="1283,-1749.5 997,-1749.5 997,-1713.5 1283,-1713.5 1283,-1749.5"/>
<text text-anchor="middle" x="1140" y="-1728.6" font-family="Courier New" font-size="11.00">ZendX_JQuery_View_Helper_DialogContainer</text>
</a>
</g>
<!-- _ZendX_JQuery_View_Helper_DialogContainer&#45;&gt;_ZendX_JQuery_View_Helper_UiWidget -->
<g id="edge29" class="edge"><title>_ZendX_JQuery_View_Helper_DialogContainer-&gt;_ZendX_JQuery_View_Helper_UiWidget</title>
<path fill="none" stroke="black" d="M996.239,-1721.8C948.874,-1717.64 896.04,-1711.99 848,-1704.5 792.654,-1695.88 731.087,-1682.29 683.516,-1670.9"/>
<polygon fill="none" stroke="black" points="684.126,-1667.45 673.584,-1668.51 682.485,-1674.25 684.126,-1667.45"/>
</g>
<!-- _ZendX_JQuery_View_Helper_AccordionPane -->
<g id="node18" class="node"><title>_ZendX_JQuery_View_Helper_AccordionPane</title>
<a xlink:href="db_ZendX_JQuery_View_Helper_AccordionPane.html" xlink:title="ZendX_JQuery_View_Helper_AccordionPane" target="_parent">
<polygon fill="none" stroke="black" points="1817,-1803.5 1545,-1803.5 1545,-1767.5 1817,-1767.5 1817,-1803.5"/>
<text text-anchor="middle" x="1681" y="-1782.6" font-family="Courier New" font-size="11.00">ZendX_JQuery_View_Helper_AccordionPane</text>
</a>
</g>
<!-- _ZendX_JQuery_View_Helper_AccordionPane&#45;&gt;_ZendX_JQuery_View_Helper_UiWidgetPane -->
<g id="edge31" class="edge"><title>_ZendX_JQuery_View_Helper_AccordionPane-&gt;_ZendX_JQuery_View_Helper_UiWidgetPane</title>
<path fill="none" stroke="black" d="M1544.3,-1771.63C1530.42,-1768.16 1516.75,-1763.85 1504,-1758.5 1467.12,-1743.02 1469.32,-1718.88 1432,-1704.5 1385.65,-1686.64 1332.22,-1678.47 1283.84,-1675.2"/>
<polygon fill="none" stroke="black" points="1283.79,-1671.69 1273.6,-1674.57 1283.37,-1678.68 1283.79,-1671.69"/>
</g>
<!-- _ZendX_JQuery_View_Helper_Slider -->
<g id="node19" class="node"><title>_ZendX_JQuery_View_Helper_Slider</title>
<a xlink:href="db_ZendX_JQuery_View_Helper_Slider.html" xlink:title="ZendX_JQuery_View_Helper_Slider" target="_parent">
<polygon fill="none" stroke="black" points="1253,-1587.5 1027,-1587.5 1027,-1551.5 1253,-1551.5 1253,-1587.5"/>
<text text-anchor="middle" x="1140" y="-1566.6" font-family="Courier New" font-size="11.00">ZendX_JQuery_View_Helper_Slider</text>
</a>
</g>
<!-- _ZendX_JQuery_View_Helper_Slider&#45;&gt;_ZendX_JQuery_View_Helper_UiWidget -->
<g id="edge33" class="edge"><title>_ZendX_JQuery_View_Helper_Slider-&gt;_ZendX_JQuery_View_Helper_UiWidget</title>
<path fill="none" stroke="black" d="M1026.9,-1571.4C972.145,-1574.47 905.882,-1581.4 848,-1596.5 814.116,-1605.34 809.727,-1619.08 776,-1628.5 762.258,-1632.34 747.713,-1635.51 733.126,-1638.13"/>
<polygon fill="none" stroke="black" points="732.298,-1634.72 723.031,-1639.85 733.478,-1641.62 732.298,-1634.72"/>
</g>
<!-- _ZendX_JQuery_View_Helper_ColorPicker -->
<g id="node20" class="node"><title>_ZendX_JQuery_View_Helper_ColorPicker</title>
<a xlink:href="db_ZendX_JQuery_View_Helper_ColorPicker.html" xlink:title="ZendX_JQuery_View_Helper_ColorPicker" target="_parent">
<polygon fill="none" stroke="black" points="1270,-1641.5 1010,-1641.5 1010,-1605.5 1270,-1605.5 1270,-1641.5"/>
<text text-anchor="middle" x="1140" y="-1620.6" font-family="Courier New" font-size="11.00">ZendX_JQuery_View_Helper_ColorPicker</text>
</a>
</g>
<!-- _ZendX_JQuery_View_Helper_ColorPicker&#45;&gt;_ZendX_JQuery_View_Helper_UiWidget -->
<g id="edge35" class="edge"><title>_ZendX_JQuery_View_Helper_ColorPicker-&gt;_ZendX_JQuery_View_Helper_UiWidget</title>
<path fill="none" stroke="black" d="M1009.66,-1630.05C925.841,-1634.27 817.323,-1639.72 733.473,-1643.94"/>
<polygon fill="none" stroke="black" points="733.184,-1640.45 723.373,-1644.45 733.536,-1647.44 733.184,-1640.45"/>
</g>
<!-- _ZendX_JQuery_View_Exception -->
<g id="node21" class="node"><title>_ZendX_JQuery_View_Exception</title>
<a xlink:href="db_ZendX_JQuery_View_Exception.html" xlink:title="ZendX_JQuery_View_Exception" target="_parent">
<polygon fill="none" stroke="black" points="1780,-1965.5 1582,-1965.5 1582,-1929.5 1780,-1929.5 1780,-1965.5"/>
<text text-anchor="middle" x="1681" y="-1944.6" font-family="Courier New" font-size="11.00">ZendX_JQuery_View_Exception</text>
</a>
</g>
<!-- _ZendX_JQuery_View_Exception&#45;&gt;_ZendX_JQuery_Exception -->
<g id="edge37" class="edge"><title>_ZendX_JQuery_View_Exception-&gt;_ZendX_JQuery_Exception</title>
<path fill="none" stroke="black" d="M1581.38,-1958.67C1535.85,-1963.68 1481.21,-1969.56 1432,-1974.5 1365.46,-1981.18 1290.32,-1988.12 1232.93,-1993.28"/>
<polygon fill="none" stroke="black" points="1232.44,-1989.81 1222.79,-1994.2 1233.06,-1996.79 1232.44,-1989.81"/>
</g>
<!-- _ZendX_JQuery_Controller_Action_Helper_AutoComplete -->
<g id="node22" class="node"><title>_ZendX_JQuery_Controller_Action_Helper_AutoComplete</title>
<a xlink:href="db_ZendX_JQuery_Controller_Action_Helper_AutoComplete.html" xlink:title="ZendX_JQuery_Controller_Action_Helper_AutoComplete" target="_parent">
<polygon fill="none" stroke="black" points="1858,-885.5 1504,-885.5 1504,-849.5 1858,-849.5 1858,-885.5"/>
<text text-anchor="middle" x="1681" y="-864.6" font-family="Courier New" font-size="11.00">ZendX_JQuery_Controller_Action_Helper_AutoComplete</text>
</a>
</g>
<!-- _Zend_Controller_Action_Helper_AutoComplete_Abstract -->
<g id="node70" class="node"><title>_Zend_Controller_Action_Helper_AutoComplete_Abstract</title>
<ellipse fill="none" stroke="black" cx="1140" cy="-291.5" rx="290.828" ry="18.3848"/>
<text text-anchor="middle" x="1140" y="-287.9" font-family="Times Roman,serif" font-size="14.00" fill="gray">\\Zend_Controller_Action_Helper_AutoComplete_Abstract</text>
</g>
<!-- _ZendX_JQuery_Controller_Action_Helper_AutoComplete&#45;&gt;_Zend_Controller_Action_Helper_AutoComplete_Abstract -->
<g id="edge39" class="edge"><title>_ZendX_JQuery_Controller_Action_Helper_AutoComplete-&gt;_Zend_Controller_Action_Helper_AutoComplete_Abstract</title>
<path fill="none" stroke="black" d="M1514.09,-849.314C1510.54,-846.639 1507.17,-843.707 1504,-840.5 1341.02,-675.391 1598.42,-485.131 1432,-323.5 1383.92,-276.801 1308.24,-269.619 1245.97,-273.686"/>
<polygon fill="none" stroke="black" points="1245.41,-270.218 1235.71,-274.465 1245.94,-277.198 1245.41,-270.218"/>
</g>
<!-- _ZendX_JQuery_Form_Exception -->
<g id="node23" class="node"><title>_ZendX_JQuery_Form_Exception</title>
<a xlink:href="db_ZendX_JQuery_Form_Exception.html" xlink:title="ZendX_JQuery_Form_Exception" target="_parent">
<polygon fill="none" stroke="black" points="1780,-1911.5 1582,-1911.5 1582,-1875.5 1780,-1875.5 1780,-1911.5"/>
<text text-anchor="middle" x="1681" y="-1890.6" font-family="Courier New" font-size="11.00">ZendX_JQuery_Form_Exception</text>
</a>
</g>
<!-- _ZendX_JQuery_Form_Exception&#45;&gt;_ZendX_JQuery_Exception -->
<g id="edge41" class="edge"><title>_ZendX_JQuery_Form_Exception-&gt;_ZendX_JQuery_Exception</title>
<path fill="none" stroke="black" d="M1581.27,-1900C1555.41,-1904.01 1528.08,-1910.39 1504,-1920.5 1467.12,-1935.98 1469.32,-1960.12 1432,-1974.5 1368.46,-1998.99 1291.6,-2005.26 1232.69,-2005.66"/>
<polygon fill="none" stroke="black" points="1232.64,-2002.16 1222.65,-2005.67 1232.65,-2009.16 1232.64,-2002.16"/>
</g>
<!-- _ZendX_JQuery_Form_Element_Spinner -->
<g id="node24" class="node"><title>_ZendX_JQuery_Form_Element_Spinner</title>
<a xlink:href="db_ZendX_JQuery_Form_Element_Spinner.html" xlink:title="ZendX_JQuery_Form_Element_Spinner" target="_parent">
<polygon fill="none" stroke="black" points="1800,-1587.5 1562,-1587.5 1562,-1551.5 1800,-1551.5 1800,-1587.5"/>
<text text-anchor="middle" x="1681" y="-1566.6" font-family="Courier New" font-size="11.00">ZendX_JQuery_Form_Element_Spinner</text>
</a>
</g>
<!-- _ZendX_JQuery_Form_Element_UiWidget -->
<g id="node27" class="node"><title>_ZendX_JQuery_Form_Element_UiWidget</title>
<a xlink:href="db_ZendX_JQuery_Form_Element_UiWidget.html" xlink:title="ZendX_JQuery_Form_Element_UiWidget" target="_parent">
<polygon fill="none" stroke="black" points="1263,-1425.5 1017,-1425.5 1017,-1389.5 1263,-1389.5 1263,-1425.5"/>
<text text-anchor="middle" x="1140" y="-1404.6" font-family="Courier New" font-size="11.00">ZendX_JQuery_Form_Element_UiWidget</text>
</a>
</g>
<!-- _ZendX_JQuery_Form_Element_Spinner&#45;&gt;_ZendX_JQuery_Form_Element_UiWidget -->
<g id="edge43" class="edge"><title>_ZendX_JQuery_Form_Element_Spinner-&gt;_ZendX_JQuery_Form_Element_UiWidget</title>
<path fill="none" stroke="black" d="M1561.36,-1565.07C1541.15,-1560.54 1521.17,-1553.44 1504,-1542.5 1455.34,-1511.51 1481.55,-1464.04 1432,-1434.5 1384.96,-1406.46 1325.9,-1397.22 1273.22,-1395.93"/>
<polygon fill="none" stroke="black" points="1273.17,-1392.43 1263.12,-1395.77 1273.06,-1399.42 1273.17,-1392.43"/>
</g>
<!-- _ZendX_JQuery_Form_Element_AutoComplete -->
<g id="node25" class="node"><title>_ZendX_JQuery_Form_Element_AutoComplete</title>
<a xlink:href="db_ZendX_JQuery_Form_Element_AutoComplete.html" xlink:title="ZendX_JQuery_Form_Element_AutoComplete" target="_parent">
<polygon fill="none" stroke="black" points="1817,-1533.5 1545,-1533.5 1545,-1497.5 1817,-1497.5 1817,-1533.5"/>
<text text-anchor="middle" x="1681" y="-1512.6" font-family="Courier New" font-size="11.00">ZendX_JQuery_Form_Element_AutoComplete</text>
</a>
</g>
<!-- _ZendX_JQuery_Form_Element_AutoComplete&#45;&gt;_ZendX_JQuery_Form_Element_UiWidget -->
<g id="edge45" class="edge"><title>_ZendX_JQuery_Form_Element_AutoComplete-&gt;_ZendX_JQuery_Form_Element_UiWidget</title>
<path fill="none" stroke="black" d="M1544.3,-1501.63C1530.42,-1498.16 1516.75,-1493.85 1504,-1488.5 1467.12,-1473.02 1469.32,-1448.88 1432,-1434.5 1382.23,-1415.32 1324.29,-1407.32 1273.21,-1404.55"/>
<polygon fill="none" stroke="black" points="1273.24,-1401.05 1263.09,-1404.07 1272.91,-1408.04 1273.24,-1401.05"/>
</g>
<!-- _ZendX_JQuery_Form_Element_DatePicker -->
<g id="node26" class="node"><title>_ZendX_JQuery_Form_Element_DatePicker</title>
<a xlink:href="db_ZendX_JQuery_Form_Element_DatePicker.html" xlink:title="ZendX_JQuery_Form_Element_DatePicker" target="_parent">
<polygon fill="none" stroke="black" points="1811,-1479.5 1551,-1479.5 1551,-1443.5 1811,-1443.5 1811,-1479.5"/>
<text text-anchor="middle" x="1681" y="-1458.6" font-family="Courier New" font-size="11.00">ZendX_JQuery_Form_Element_DatePicker</text>
</a>
</g>
<!-- _ZendX_JQuery_Form_Element_DatePicker&#45;&gt;_ZendX_JQuery_Form_Element_UiWidget -->
<g id="edge47" class="edge"><title>_ZendX_JQuery_Form_Element_DatePicker-&gt;_ZendX_JQuery_Form_Element_UiWidget</title>
<path fill="none" stroke="black" d="M1550.84,-1446.99C1512.57,-1442.83 1470.61,-1438.38 1432,-1434.5 1380.23,-1429.3 1323.25,-1423.95 1273.47,-1419.39"/>
<polygon fill="none" stroke="black" points="1273.57,-1415.89 1263.29,-1418.46 1272.93,-1422.86 1273.57,-1415.89"/>
</g>
<!-- _Zend_Form_Element -->
<g id="node76" class="node"><title>_Zend_Form_Element</title>
<ellipse fill="none" stroke="black" cx="603" cy="-491.5" rx="118.087" ry="18.3848"/>
<text text-anchor="middle" x="603" y="-487.9" font-family="Times Roman,serif" font-size="14.00" fill="gray">\\Zend_Form_Element</text>
</g>
<!-- _ZendX_JQuery_Form_Element_UiWidget&#45;&gt;_Zend_Form_Element -->
<g id="edge49" class="edge"><title>_ZendX_JQuery_Form_Element_UiWidget-&gt;_Zend_Form_Element</title>
<path fill="none" stroke="black" d="M1016.76,-1404.6C956.748,-1396.36 888.897,-1375.62 848,-1326.5 731.953,-1187.11 901.781,-644.174 776,-513.5 760.362,-497.253 739.18,-488.598 717.004,-484.492"/>
<polygon fill="none" stroke="black" points="717.527,-481.031 707.109,-482.958 716.455,-487.949 717.527,-481.031"/>
</g>
<!-- _ZendX_JQuery_Form_Element_Slider -->
<g id="node28" class="node"><title>_ZendX_JQuery_Form_Element_Slider</title>
<a xlink:href="db_ZendX_JQuery_Form_Element_Slider.html" xlink:title="ZendX_JQuery_Form_Element_Slider" target="_parent">
<polygon fill="none" stroke="black" points="1797,-1425.5 1565,-1425.5 1565,-1389.5 1797,-1389.5 1797,-1425.5"/>
<text text-anchor="middle" x="1681" y="-1404.6" font-family="Courier New" font-size="11.00">ZendX_JQuery_Form_Element_Slider</text>
</a>
</g>
<!-- _ZendX_JQuery_Form_Element_Slider&#45;&gt;_ZendX_JQuery_Form_Element_UiWidget -->
<g id="edge51" class="edge"><title>_ZendX_JQuery_Form_Element_Slider-&gt;_ZendX_JQuery_Form_Element_UiWidget</title>
<path fill="none" stroke="black" d="M1564.28,-1407.5C1478.74,-1407.5 1362.47,-1407.5 1273.28,-1407.5"/>
<polygon fill="none" stroke="black" points="1273.09,-1404 1263.09,-1407.5 1273.09,-1411 1273.09,-1404"/>
</g>
<!-- _ZendX_JQuery_Form_Element_ColorPicker -->
<g id="node29" class="node"><title>_ZendX_JQuery_Form_Element_ColorPicker</title>
<a xlink:href="db_ZendX_JQuery_Form_Element_ColorPicker.html" xlink:title="ZendX_JQuery_Form_Element_ColorPicker" target="_parent">
<polygon fill="none" stroke="black" points="1814,-1641.5 1548,-1641.5 1548,-1605.5 1814,-1605.5 1814,-1641.5"/>
<text text-anchor="middle" x="1681" y="-1620.6" font-family="Courier New" font-size="11.00">ZendX_JQuery_Form_Element_ColorPicker</text>
</a>
</g>
<!-- _ZendX_JQuery_Form_Element_ColorPicker&#45;&gt;_ZendX_JQuery_Form_Element_UiWidget -->
<g id="edge53" class="edge"><title>_ZendX_JQuery_Form_Element_ColorPicker-&gt;_ZendX_JQuery_Form_Element_UiWidget</title>
<path fill="none" stroke="black" d="M1547.87,-1618.21C1532.07,-1613.38 1516.97,-1606.4 1504,-1596.5 1441.37,-1548.69 1496.02,-1480.43 1432,-1434.5 1386.83,-1402.09 1327.05,-1392.41 1273.36,-1391.98"/>
<polygon fill="none" stroke="black" points="1273.05,-1388.48 1263.06,-1392.01 1273.07,-1395.48 1273.05,-1388.48"/>
</g>
<!-- _ZendX_JQuery_Form_Decorator_TabPane -->
<g id="node30" class="node"><title>_ZendX_JQuery_Form_Decorator_TabPane</title>
<a xlink:href="db_ZendX_JQuery_Form_Decorator_TabPane.html" xlink:title="ZendX_JQuery_Form_Decorator_TabPane" target="_parent">
<polygon fill="none" stroke="black" points="1807,-1371.5 1555,-1371.5 1555,-1335.5 1807,-1335.5 1807,-1371.5"/>
<text text-anchor="middle" x="1681" y="-1350.6" font-family="Courier New" font-size="11.00">ZendX_JQuery_Form_Decorator_TabPane</text>
</a>
</g>
<!-- _ZendX_JQuery_Form_Decorator_UiWidgetPane -->
<g id="node34" class="node"><title>_ZendX_JQuery_Form_Decorator_UiWidgetPane</title>
<a xlink:href="db_ZendX_JQuery_Form_Decorator_UiWidgetPane.html" xlink:title="«abstract»&lt;br/&gt;ZendX_JQuery_Form_Decorator_UiWidgetPane" target="_parent">
<polygon fill="none" stroke="black" points="1284,-1317.5 996,-1317.5 996,-1281.5 1284,-1281.5 1284,-1317.5"/>
<text text-anchor="start" x="1106" y="-1304.93" font-family="Courier New" font-size="11.00">«abstract»</text>
<text text-anchor="start" x="1004.5" y="-1291.73" font-family="Courier New" font-size="11.00">ZendX_JQuery_Form_Decorator_UiWidgetPane</text>
</a>
</g>
<!-- _ZendX_JQuery_Form_Decorator_TabPane&#45;&gt;_ZendX_JQuery_Form_Decorator_UiWidgetPane -->
<g id="edge55" class="edge"><title>_ZendX_JQuery_Form_Decorator_TabPane-&gt;_ZendX_JQuery_Form_Decorator_UiWidgetPane</title>
<path fill="none" stroke="black" d="M1554.16,-1340.84C1476.51,-1333.09 1376.61,-1323.12 1294.38,-1314.91"/>
<polygon fill="none" stroke="black" points="1294.49,-1311.4 1284.19,-1313.89 1293.79,-1318.37 1294.49,-1311.4"/>
</g>
<!-- _ZendX_JQuery_Form_Decorator_TabContainer -->
<g id="node31" class="node"><title>_ZendX_JQuery_Form_Decorator_TabContainer</title>
<a xlink:href="db_ZendX_JQuery_Form_Decorator_TabContainer.html" xlink:title="ZendX_JQuery_Form_Decorator_TabContainer" target="_parent">
<polygon fill="none" stroke="black" points="1824,-1209.5 1538,-1209.5 1538,-1173.5 1824,-1173.5 1824,-1209.5"/>
<text text-anchor="middle" x="1681" y="-1188.6" font-family="Courier New" font-size="11.00">ZendX_JQuery_Form_Decorator_TabContainer</text>
</a>
</g>
<!-- _ZendX_JQuery_Form_Decorator_UiWidgetContainer -->
<g id="node33" class="node"><title>_ZendX_JQuery_Form_Decorator_UiWidgetContainer</title>
<a xlink:href="db_ZendX_JQuery_Form_Decorator_UiWidgetContainer.html" xlink:title="«abstract»&lt;br/&gt;ZendX_JQuery_Form_Decorator_UiWidgetContainer" target="_parent">
<polygon fill="none" stroke="black" points="1300,-1182.5 980,-1182.5 980,-1146.5 1300,-1146.5 1300,-1182.5"/>
<text text-anchor="start" x="1106" y="-1169.93" font-family="Courier New" font-size="11.00">«abstract»</text>
<text text-anchor="start" x="988" y="-1156.73" font-family="Courier New" font-size="11.00">ZendX_JQuery_Form_Decorator_UiWidgetContainer</text>
</a>
</g>
<!-- _ZendX_JQuery_Form_Decorator_TabContainer&#45;&gt;_ZendX_JQuery_Form_Decorator_UiWidgetContainer -->
<g id="edge57" class="edge"><title>_ZendX_JQuery_Form_Decorator_TabContainer-&gt;_ZendX_JQuery_Form_Decorator_UiWidgetContainer</title>
<path fill="none" stroke="black" d="M1537.44,-1184.34C1467.93,-1180.87 1383.96,-1176.67 1311.14,-1173.04"/>
<polygon fill="none" stroke="black" points="1311.1,-1169.53 1300.94,-1172.53 1310.75,-1176.53 1311.1,-1169.53"/>
</g>
<!-- _ZendX_JQuery_Form_Decorator_AccordionContainer -->
<g id="node32" class="node"><title>_ZendX_JQuery_Form_Decorator_AccordionContainer</title>
<a xlink:href="db_ZendX_JQuery_Form_Decorator_AccordionContainer.html" xlink:title="ZendX_JQuery_Form_Decorator_AccordionContainer" target="_parent">
<polygon fill="none" stroke="black" points="1844,-1155.5 1518,-1155.5 1518,-1119.5 1844,-1119.5 1844,-1155.5"/>
<text text-anchor="middle" x="1681" y="-1134.6" font-family="Courier New" font-size="11.00">ZendX_JQuery_Form_Decorator_AccordionContainer</text>
</a>
</g>
<!-- _ZendX_JQuery_Form_Decorator_AccordionContainer&#45;&gt;_ZendX_JQuery_Form_Decorator_UiWidgetContainer -->
<g id="edge59" class="edge"><title>_ZendX_JQuery_Form_Decorator_AccordionContainer-&gt;_ZendX_JQuery_Form_Decorator_UiWidgetContainer</title>
<path fill="none" stroke="black" d="M1517.21,-1145.67C1451.99,-1148.93 1376.9,-1152.68 1310.98,-1155.97"/>
<polygon fill="none" stroke="black" points="1310.72,-1152.48 1300.9,-1156.47 1311.07,-1159.47 1310.72,-1152.48"/>
</g>
<!-- _Zend_Form_Decorator_Abstract -->
<g id="node83" class="node"><title>_Zend_Form_Decorator_Abstract</title>
<ellipse fill="none" stroke="black" cx="603" cy="-437.5" rx="173.241" ry="18.3848"/>
<text text-anchor="middle" x="603" y="-433.9" font-family="Times Roman,serif" font-size="14.00" fill="gray">\\Zend_Form_Decorator_Abstract</text>
</g>
<!-- _ZendX_JQuery_Form_Decorator_UiWidgetContainer&#45;&gt;_Zend_Form_Decorator_Abstract -->
<g id="edge61" class="edge"><title>_ZendX_JQuery_Form_Decorator_UiWidgetContainer-&gt;_Zend_Form_Decorator_Abstract</title>
<path fill="none" stroke="black" d="M979.141,-1169.94C930.693,-1163.21 881.541,-1146.54 848,-1110.5 651.195,-899.017 975.751,-673.202 776,-464.5 771.448,-459.744 766.428,-455.599 761.052,-451.997"/>
<polygon fill="none" stroke="black" points="762.705,-448.907 752.327,-446.772 759.109,-454.913 762.705,-448.907"/>
</g>
<!-- _ZendX_JQuery_Form_Decorator_UiWidgetPane&#45;&gt;_Zend_Form_Decorator_Abstract -->
<g id="edge63" class="edge"><title>_ZendX_JQuery_Form_Decorator_UiWidgetPane-&gt;_Zend_Form_Decorator_Abstract</title>
<path fill="none" stroke="black" d="M1004.15,-1281.5C947.144,-1266.78 885.498,-1240.05 848,-1191.5 748.768,-1063.01 887.531,-582.47 776,-464.5 771.477,-459.716 766.482,-455.548 761.126,-451.927"/>
<polygon fill="none" stroke="black" points="762.799,-448.848 752.429,-446.676 759.18,-454.841 762.799,-448.848"/>
</g>
<!-- _ZendX_JQuery_Form_Decorator_DialogContainer -->
<g id="node35" class="node"><title>_ZendX_JQuery_Form_Decorator_DialogContainer</title>
<a xlink:href="db_ZendX_JQuery_Form_Decorator_DialogContainer.html" xlink:title="ZendX_JQuery_Form_Decorator_DialogContainer" target="_parent">
<polygon fill="none" stroke="black" points="1834,-1263.5 1528,-1263.5 1528,-1227.5 1834,-1227.5 1834,-1263.5"/>
<text text-anchor="middle" x="1681" y="-1242.6" font-family="Courier New" font-size="11.00">ZendX_JQuery_Form_Decorator_DialogContainer</text>
</a>
</g>
<!-- _ZendX_JQuery_Form_Decorator_DialogContainer&#45;&gt;_ZendX_JQuery_Form_Decorator_UiWidgetContainer -->
<g id="edge65" class="edge"><title>_ZendX_JQuery_Form_Decorator_DialogContainer-&gt;_ZendX_JQuery_Form_Decorator_UiWidgetContainer</title>
<path fill="none" stroke="black" d="M1560.6,-1227.47C1474.56,-1214.59 1358.86,-1197.27 1270.6,-1184.05"/>
<polygon fill="none" stroke="black" points="1270.92,-1180.56 1260.52,-1182.54 1269.89,-1187.49 1270.92,-1180.56"/>
</g>
<!-- _ZendX_JQuery_Form_Decorator_AccordionPane -->
<g id="node36" class="node"><title>_ZendX_JQuery_Form_Decorator_AccordionPane</title>
<a xlink:href="db_ZendX_JQuery_Form_Decorator_AccordionPane.html" xlink:title="ZendX_JQuery_Form_Decorator_AccordionPane" target="_parent">
<polygon fill="none" stroke="black" points="1827,-1317.5 1535,-1317.5 1535,-1281.5 1827,-1281.5 1827,-1317.5"/>
<text text-anchor="middle" x="1681" y="-1296.6" font-family="Courier New" font-size="11.00">ZendX_JQuery_Form_Decorator_AccordionPane</text>
</a>
</g>
<!-- _ZendX_JQuery_Form_Decorator_AccordionPane&#45;&gt;_ZendX_JQuery_Form_Decorator_UiWidgetPane -->
<g id="edge67" class="edge"><title>_ZendX_JQuery_Form_Decorator_AccordionPane-&gt;_ZendX_JQuery_Form_Decorator_UiWidgetPane</title>
<path fill="none" stroke="black" d="M1534.24,-1299.5C1459.97,-1299.5 1369.84,-1299.5 1294.52,-1299.5"/>
<polygon fill="none" stroke="black" points="1294.46,-1296 1284.46,-1299.5 1294.46,-1303 1294.46,-1296"/>
</g>
<!-- _ZendX_JQuery_Form_Decorator_UiWidgetElement -->
<g id="node37" class="node"><title>_ZendX_JQuery_Form_Decorator_UiWidgetElement</title>
<a xlink:href="db_ZendX_JQuery_Form_Decorator_UiWidgetElement.html" xlink:title="ZendX_JQuery_Form_Decorator_UiWidgetElement" target="_parent">
<polygon fill="none" stroke="black" points="1834,-1101.5 1528,-1101.5 1528,-1065.5 1834,-1065.5 1834,-1101.5"/>
<text text-anchor="middle" x="1681" y="-1080.6" font-family="Courier New" font-size="11.00">ZendX_JQuery_Form_Decorator_UiWidgetElement</text>
</a>
</g>
<!-- _ZendX_JQuery_Form_Decorator_UiWidgetElementMarker -->
<g id="node38" class="node"><title>_ZendX_JQuery_Form_Decorator_UiWidgetElementMarker</title>
<a xlink:href="db_ZendX_JQuery_Form_Decorator_UiWidgetElementMarker.html" xlink:title="ZendX_JQuery_Form_Decorator_UiWidgetElementMarker" target="_parent">
<polygon fill="none" stroke="black" points="1313,-1101.5 967,-1101.5 967,-1065.5 1313,-1065.5 1313,-1101.5"/>
<text text-anchor="middle" x="1140" y="-1080.6" font-family="Courier New" font-size="11.00">ZendX_JQuery_Form_Decorator_UiWidgetElementMarker</text>
</a>
</g>
<!-- _ZendX_JQuery_Form_Decorator_UiWidgetElement&#45;&gt;_ZendX_JQuery_Form_Decorator_UiWidgetElementMarker -->
<g id="edge85" class="edge"><title>_ZendX_JQuery_Form_Decorator_UiWidgetElement-&gt;_ZendX_JQuery_Form_Decorator_UiWidgetElementMarker</title>
<path fill="none" stroke="black" stroke-dasharray="1,5" d="M1527.42,-1083.5C1464.13,-1083.5 1390.26,-1083.5 1324.1,-1083.5"/>
<polygon fill="none" stroke="black" points="1323.98,-1080 1313.98,-1083.5 1323.98,-1087 1323.98,-1080"/>
</g>
<!-- _Zend_Form_Decorator_ViewHelper -->
<g id="node88" class="node"><title>_Zend_Form_Decorator_ViewHelper</title>
<ellipse fill="none" stroke="black" cx="1140" cy="-491.5" rx="188.09" ry="18.3848"/>
<text text-anchor="middle" x="1140" y="-487.9" font-family="Times Roman,serif" font-size="14.00" fill="gray">\\Zend_Form_Decorator_ViewHelper</text>
</g>
<!-- _ZendX_JQuery_Form_Decorator_UiWidgetElement&#45;&gt;_Zend_Form_Decorator_ViewHelper -->
<g id="edge69" class="edge"><title>_ZendX_JQuery_Form_Decorator_UiWidgetElement-&gt;_Zend_Form_Decorator_ViewHelper</title>
<path fill="none" stroke="black" d="M1527.2,-1073.75C1518.7,-1069.17 1510.86,-1063.49 1504,-1056.5 1333.55,-882.683 1608.95,-680.699 1432,-513.5 1376.03,-460.611 1284.06,-462.608 1218.29,-473.056"/>
<polygon fill="none" stroke="black" points="1217.66,-469.613 1208.38,-474.726 1218.82,-476.516 1217.66,-469.613"/>
</g>
<!-- _ZendX_Db_Adapter_Firebird_Exception -->
<g id="node39" class="node"><title>_ZendX_Db_Adapter_Firebird_Exception</title>
<a xlink:href="db_ZendX_Db_Adapter_Firebird_Exception.html" xlink:title="ZendX_Db_Adapter_Firebird_Exception" target="_parent">
<polygon fill="none" stroke="black" points="1807,-831.5 1555,-831.5 1555,-795.5 1807,-795.5 1807,-831.5"/>
<text text-anchor="middle" x="1681" y="-810.6" font-family="Courier New" font-size="11.00">ZendX_Db_Adapter_Firebird_Exception</text>
</a>
</g>
<!-- _Zend_Db_Adapter_Exception -->
<g id="node90" class="node"><title>_Zend_Db_Adapter_Exception</title>
<ellipse fill="none" stroke="black" cx="1140" cy="-237.5" rx="159.099" ry="18.3848"/>
<text text-anchor="middle" x="1140" y="-233.9" font-family="Times Roman,serif" font-size="14.00" fill="gray">\\Zend_Db_Adapter_Exception</text>
</g>
<!-- _ZendX_Db_Adapter_Firebird_Exception&#45;&gt;_Zend_Db_Adapter_Exception -->
<g id="edge71" class="edge"><title>_ZendX_Db_Adapter_Firebird_Exception-&gt;_Zend_Db_Adapter_Exception</title>
<path fill="none" stroke="black" d="M1554.32,-814.38C1535.45,-809.163 1517.75,-800.446 1504,-786.5 1339.59,-619.717 1601.27,-426.346 1432,-264.5 1377.6,-212.485 1288.65,-211.543 1223.19,-220.032"/>
<polygon fill="none" stroke="black" points="1222.32,-216.62 1212.9,-221.469 1223.29,-223.552 1222.32,-216.62"/>
</g>
<!-- _ZendX_Db_Adapter_Firebird -->
<g id="node40" class="node"><title>_ZendX_Db_Adapter_Firebird</title>
<a xlink:href="db_ZendX_Db_Adapter_Firebird.html" xlink:title="ZendX_Db_Adapter_Firebird" target="_parent">
<polygon fill="none" stroke="black" points="1773,-777.5 1589,-777.5 1589,-741.5 1773,-741.5 1773,-777.5"/>
<text text-anchor="middle" x="1681" y="-756.6" font-family="Courier New" font-size="11.00">ZendX_Db_Adapter_Firebird</text>
</a>
</g>
<!-- _Zend_Db_Adapter_Abstract -->
<g id="node92" class="node"><title>_Zend_Db_Adapter_Abstract</title>
<ellipse fill="none" stroke="black" cx="1140" cy="-183.5" rx="152.028" ry="18.3848"/>
<text text-anchor="middle" x="1140" y="-179.9" font-family="Times Roman,serif" font-size="14.00" fill="gray">\\Zend_Db_Adapter_Abstract</text>
</g>
<!-- _ZendX_Db_Adapter_Firebird&#45;&gt;_Zend_Db_Adapter_Abstract -->
<g id="edge73" class="edge"><title>_ZendX_Db_Adapter_Firebird-&gt;_Zend_Db_Adapter_Abstract</title>
<path fill="none" stroke="black" d="M1588.23,-766.301C1557.6,-763.599 1525.82,-754.637 1504,-732.5 1339.59,-565.717 1601.27,-372.346 1432,-210.5 1377.34,-158.235 1287.79,-157.535 1222.25,-166.155"/>
<polygon fill="none" stroke="black" points="1221.36,-162.746 1211.95,-167.612 1222.34,-169.677 1221.36,-162.746"/>
</g>
<!-- _ZendX_Db_Statement_Firebird_Exception -->
<g id="node41" class="node"><title>_ZendX_Db_Statement_Firebird_Exception</title>
<a xlink:href="db_ZendX_Db_Statement_Firebird_Exception.html" xlink:title="ZendX_Db_Statement_Firebird_Exception" target="_parent">
<polygon fill="none" stroke="black" points="1814,-723.5 1548,-723.5 1548,-687.5 1814,-687.5 1814,-723.5"/>
<text text-anchor="middle" x="1681" y="-702.6" font-family="Courier New" font-size="11.00">ZendX_Db_Statement_Firebird_Exception</text>
</a>
</g>
<!-- _Zend_Db_Statement_Exception -->
<g id="node94" class="node"><title>_Zend_Db_Statement_Exception</title>
<ellipse fill="none" stroke="black" cx="1140" cy="-129.5" rx="172.034" ry="18.3848"/>
<text text-anchor="middle" x="1140" y="-125.9" font-family="Times Roman,serif" font-size="14.00" fill="gray">\\Zend_Db_Statement_Exception</text>
</g>
<!-- _ZendX_Db_Statement_Firebird_Exception&#45;&gt;_Zend_Db_Statement_Exception -->
<g id="edge75" class="edge"><title>_ZendX_Db_Statement_Firebird_Exception-&gt;_Zend_Db_Statement_Exception</title>
<path fill="none" stroke="black" d="M1547.64,-704.365C1531.29,-699.014 1516.11,-690.786 1504,-678.5 1339.59,-511.717 1601.27,-318.346 1432,-156.5 1378.03,-104.903 1290.07,-103.561 1224.77,-111.829"/>
<polygon fill="none" stroke="black" points="1223.93,-108.412 1214.5,-113.232 1224.88,-115.347 1223.93,-108.412"/>
</g>
<!-- _ZendX_Db_Statement_Firebird -->
<g id="node42" class="node"><title>_ZendX_Db_Statement_Firebird</title>
<a xlink:href="db_ZendX_Db_Statement_Firebird.html" xlink:title="ZendX_Db_Statement_Firebird" target="_parent">
<polygon fill="none" stroke="black" points="1780,-669.5 1582,-669.5 1582,-633.5 1780,-633.5 1780,-669.5"/>
<text text-anchor="middle" x="1681" y="-648.6" font-family="Courier New" font-size="11.00">ZendX_Db_Statement_Firebird</text>
</a>
</g>
<!-- _Zend_Db_Statement -->
<g id="node96" class="node"><title>_Zend_Db_Statement</title>
<ellipse fill="none" stroke="black" cx="1140" cy="-75.4997" rx="119.001" ry="18.3848"/>
<text text-anchor="middle" x="1140" y="-71.8997" font-family="Times Roman,serif" font-size="14.00" fill="gray">\\Zend_Db_Statement</text>
</g>
<!-- _ZendX_Db_Statement_Firebird&#45;&gt;_Zend_Db_Statement -->
<g id="edge77" class="edge"><title>_ZendX_Db_Statement_Firebird-&gt;_Zend_Db_Statement</title>
<path fill="none" stroke="black" d="M1581.33,-657.585C1552.89,-654.18 1524.19,-644.976 1504,-624.5 1339.59,-457.717 1601.27,-264.346 1432,-102.5 1375.65,-48.6212 1282.23,-49.5411 1216.25,-58.9786"/>
<polygon fill="none" stroke="black" points="1215.67,-55.526 1206.31,-60.4931 1216.73,-62.4461 1215.67,-55.526"/>
</g>
<!-- _ZendX_Application_Resource_Jquery -->
<g id="node43" class="node"><title>_ZendX_Application_Resource_Jquery</title>
<a xlink:href="db_ZendX_Application_Resource_Jquery.html" xlink:title="ZendX_Application_Resource_Jquery" target="_parent">
<polygon fill="none" stroke="black" points="1800,-615.5 1562,-615.5 1562,-579.5 1800,-579.5 1800,-615.5"/>
<text text-anchor="middle" x="1681" y="-594.6" font-family="Courier New" font-size="11.00">ZendX_Application_Resource_Jquery</text>
</a>
</g>
<!-- _Zend_Application_Resource_ResourceAbstract -->
<g id="node98" class="node"><title>_Zend_Application_Resource_ResourceAbstract</title>
<ellipse fill="none" stroke="black" cx="1140" cy="-21.4997" rx="241.123" ry="18.3848"/>
<text text-anchor="middle" x="1140" y="-17.8997" font-family="Times Roman,serif" font-size="14.00" fill="gray">\\Zend_Application_Resource_ResourceAbstract</text>
</g>
<!-- _ZendX_Application_Resource_Jquery&#45;&gt;_Zend_Application_Resource_ResourceAbstract -->
<g id="edge79" class="edge"><title>_ZendX_Application_Resource_Jquery-&gt;_Zend_Application_Resource_ResourceAbstract</title>
<path fill="none" stroke="black" d="M1561.11,-600.098C1539.72,-595.165 1519.38,-586.106 1504,-570.5 1339.59,-403.717 1601.27,-210.346 1432,-48.4997 1379.43,1.76152 1294.6,4.33546 1229.89,-3.20698"/>
<polygon fill="none" stroke="black" points="1229.17,0.229389 1219.68,-4.4986 1230.04,-6.71521 1229.17,0.229389"/>
</g>
<!-- _ZendX_Console_Exception -->
<g id="node44" class="node"><title>_ZendX_Console_Exception</title>
<a xlink:href="db_ZendX_Console_Exception.html" xlink:title="ZendX_Console_Exception" target="_parent">
<polygon fill="none" stroke="black" points="1226,-1965.5 1054,-1965.5 1054,-1929.5 1226,-1929.5 1226,-1965.5"/>
<text text-anchor="middle" x="1140" y="-1944.6" font-family="Courier New" font-size="11.00">ZendX_Console_Exception</text>
</a>
</g>
<!-- _ZendX_Console_Exception&#45;&gt;_ZendX_Exception -->
<g id="edge81" class="edge"><title>_ZendX_Console_Exception-&gt;_ZendX_Exception</title>
<path fill="none" stroke="black" d="M1053.72,-1947.82C947.631,-1948.22 769.674,-1948.88 672.126,-1949.24"/>
<polygon fill="none" stroke="black" points="672.066,-1945.74 662.079,-1949.28 672.092,-1952.74 672.066,-1945.74"/>
</g>
<!-- _ZendX_Console_Process_Exception -->
<g id="node45" class="node"><title>_ZendX_Console_Process_Exception</title>
<a xlink:href="db_ZendX_Console_Process_Exception.html" xlink:title="ZendX_Console_Process_Exception" target="_parent">
<polygon fill="none" stroke="black" points="1794,-1857.5 1568,-1857.5 1568,-1821.5 1794,-1821.5 1794,-1857.5"/>
<text text-anchor="middle" x="1681" y="-1836.6" font-family="Courier New" font-size="11.00">ZendX_Console_Process_Exception</text>
</a>
</g>
<!-- _ZendX_Console_Process_Exception&#45;&gt;_ZendX_Console_Exception -->
<g id="edge83" class="edge"><title>_ZendX_Console_Process_Exception-&gt;_ZendX_Console_Exception</title>
<path fill="none" stroke="black" d="M1567.77,-1848.3C1546.07,-1852.33 1523.92,-1858.14 1504,-1866.5 1467.12,-1881.98 1469.32,-1906.12 1432,-1920.5 1369.82,-1944.46 1294.89,-1950.98 1236.5,-1951.63"/>
<polygon fill="none" stroke="black" points="1236.15,-1948.13 1226.17,-1951.68 1236.19,-1955.13 1236.15,-1948.13"/>
</g>
<!-- _ZendX_Console_Process_Unix -->
<g id="node46" class="node"><title>_ZendX_Console_Process_Unix</title>
<a xlink:href="db_ZendX_Console_Process_Unix.html" xlink:title="«abstract»&lt;br/&gt;ZendX_Console_Process_Unix" target="_parent">
<polygon fill="none" stroke="black" points="1777,-561.5 1585,-561.5 1585,-525.5 1777,-525.5 1777,-561.5"/>
<text text-anchor="start" x="1647" y="-548.933" font-family="Courier New" font-size="11.00">«abstract»</text>
<text text-anchor="start" x="1593" y="-535.733" font-family="Courier New" font-size="11.00">ZendX_Console_Process_Unix</text>
</a>
</g>
</g>
<script xlink:href="js/SVGPan.js"/></svg>
